<?xml version="1.0" encoding="utf-8"?>
<!-- Generator: Adobe Illustrator 27.3.1, SVG Export Plug-In . SVG Version: 6.00 Build 0)  -->
<svg version="1.1" xmlns="http://www.w3.org/2000/svg" xmlns:xlink="http://www.w3.org/1999/xlink" x="0px" y="0px"
	 viewBox="0 0 2000 2000" style="enable-background:new 0 0 2000 2000;" xml:space="preserve">
<style type="text/css">
	.st0{fill:#FFFFFF;}
</style>
<g id="Layer_1">
	<g>
		<path class="st0" d="M202.6,1834.17c0-531.6,0-1063.2,0-1594.8c531.6,0,1063.2,0,1594.8,0c0,531.6,0,1063.2,0,1594.8
			C1265.8,1834.17,734.2,1834.17,202.6,1834.17z M623.49,957.6c0.48-0.28,0.95-0.56,1.43-0.84c6.65,8.21,13.3,16.41,19.94,24.62
			c6.52,8.07,13.01,16.15,19.52,24.22c6.67,8.28,13.34,16.55,20.02,24.82c6.68,8.27,13.36,16.53,20.04,24.81
			c6.67,8.27,13.33,16.56,20,24.84c6.51,8.08,13.01,16.15,19.52,24.22c6.67,8.28,13.34,16.55,20.02,24.82s13.35,16.54,20.04,24.8
			c6.69,8.26,13.4,16.5,20.1,24.76c6.53,8.05,13.01,16.16,19.6,24.16c6.73,8.17,13.18,16.58,20.56,24.82
			c1.27-2.07,2.26-3.55,3.1-5.11c7.1-13.24,14.23-26.48,21.26-39.77c17.45-32.99,34.84-66,52.31-98.98c1.3-2.46,2.05-5.35,4.71-7.09
			c50.3,22.98,100.68,22.86,150.97-0.1c2.44,2.64,3.55,5.57,4.99,8.28c24.03,45.34,48.03,90.69,72.07,136.02
			c1.13,2.14,1.88,4.66,4.44,6.46c5.56-6.77,10.81-13.16,16.04-19.55c5.25-6.42,10.5-12.85,15.73-19.29
			c5.23-6.44,10.44-12.9,15.66-19.34c5.22-6.45,10.45-12.89,15.66-19.34c5.22-6.45,10.44-12.9,15.65-19.36s10.42-12.92,15.62-19.38
			c5.21-6.46,10.4-12.93,15.61-19.38c5.21-6.46,10.44-12.9,15.64-19.36c5.2-6.46,10.38-12.95,15.59-19.4
			c5.21-6.46,10.45-12.89,15.66-19.35c5.21-6.46,10.4-12.93,15.6-19.39c5.2-6.46,10.41-12.92,15.62-19.37
			c5.21-6.46,10.36-12.96,15.66-19.35c5.25-6.33,9.93-13.15,17.04-20.21c-1.09,4.32-1.75,7.03-2.47,9.72
			c-11.07,41.29-22.15,82.57-33.22,123.86c-7.85,29.28-15.67,58.56-23.52,87.84c-0.55,2.06-0.8,4.29-2.81,6.45
			c-4.97-9.19-8.86-18.2-13.11-27.03c-4.27-8.87-8.39-17.82-12.73-26.66c-4.28-8.74-7.95-17.8-12.93-26.34
			c-5.13,4.48-29.45,34.57-33.15,40.98c14.87,31.32,29.85,62.88,44.82,94.42c-6.5,10.53-13.26,20.33-20.86,29.54
			c-20.02,24.26-42.07,46.5-66.03,66.89c-28.63,24.37-57.09,48.93-85.59,73.45c-1.26,1.08-3.33,1.69-3.16,4.15
			c1.03,0,2.07,0.18,3.04-0.03c104.43-21.9,208.86-43.82,313.28-65.78c0.43-0.09,0.76-0.62,1.54-1.29
			c-0.38-1.21-0.69-2.69-1.29-4.04c-4.96-11.12-9.92-22.25-14.99-33.32c-8.52-18.61-17.09-37.2-25.7-55.77
			c-1.35-2.92-1.82-5.72-1.23-8.99c3.2-17.85,6.17-35.75,9.25-53.62c5.46-31.66,10.98-63.32,16.42-94.98
			c5.44-31.67,10.82-63.34,16.24-95.01c5.99-34.99,11.99-69.97,18.02-104.95c5.5-31.92,11.05-63.83,16.57-95.74
			c1.67-9.67,3.32-19.35,5.02-29.2c-3.25,0.25-4.07,2.75-5.45,4.43c-54.1,65.95-108.15,131.93-162.2,197.91
			c-16.59,20.26-33.16,40.54-49.79,60.77c-1.39,1.69-2.39,4-5.33,4.53c-1.34-2.63-2.67-5.11-3.87-7.65
			c-28.82-60.61-57.63-121.23-86.45-181.84c-29.37-61.78-58.76-123.56-88.11-185.36c-1.19-2.5-2.93-4.86-2.96-7.98
			c3.62-2.65,7.12-5.21,10.52-7.69c-3.64-8.61-71.97-133.11-75.57-137.81c-0.26,0.05-0.53,0.04-0.76,0.15
			c-0.22,0.11-0.44,0.3-0.57,0.51c-0.69,1.09-1.4,2.18-2.02,3.31c-24.08,44.13-48.16,88.27-72.23,132.4
			c-0.12,0.21-0.2,0.48-0.18,0.72c0.02,0.25,0.17,0.48,0.37,0.99c2.69,3.12,7.34,4.31,9.97,7.91c-0.21,0.95-0.23,1.76-0.55,2.42
			c-60.1,126.36-120.23,252.71-180.36,379.06c-0.11,0.22-0.3,0.45-0.52,0.57c-0.19,0.11-0.47,0.07-1.34,0.16
			c-1.42-1.61-3.15-3.46-4.76-5.42c-55.87-68.18-111.73-136.37-167.59-204.56c-14.46-17.65-28.9-35.31-43.4-52.93
			c-1.23-1.49-2.08-3.61-5.1-3.84c0.29,2.72,0.42,5.24,0.85,7.71c4.91,28.07,9.93,56.13,14.79,84.21
			c6.27,36.25,12.43,72.52,18.62,108.79c8.02,47,16.01,94,24.06,140.99c7.17,41.88,14.34,83.77,21.65,125.63
			c2.13,12.22,2.04,9.22-2.52,19.29c-12.29,27.15-24.74,54.22-37.09,81.33c-1.04,2.29-2.7,4.43-2.46,7.59
			c1.21,0.37,2.36,0.82,3.55,1.08c10.89,2.33,21.79,4.63,32.69,6.92c40.81,8.57,81.62,17.12,122.43,25.69
			c38.27,8.03,76.55,16.07,114.82,24.12c12.93,2.72,25.84,5.49,38.77,8.17c1.84,0.38,3.81,1.05,6.36-0.17
			c-2.04-1.81-3.54-3.16-5.07-4.47c-29.11-25-58.19-50.04-87.36-74.96c-21.74-18.58-41.67-38.92-60.15-60.72
			c-7.73-9.11-14.66-18.8-21.16-28.82c-0.96-1.48-1.67-3.12-2.57-4.84c3.05-6.48,6.02-12.8,9-19.11c2.99-6.32,6-12.64,9.01-18.96
			c3.01-6.32,6.03-12.63,9.04-18.94c3.01-6.32,6.14-12.58,8.99-18.96c2.83-6.34,6.56-12.3,8.41-18.81
			c-4.93-7.34-28.37-36.16-32.54-40.05c-2.42,1.47-2.89,4.18-3.97,6.45c-10.83,22.68-21.59,45.4-32.45,68.06
			c-0.82,1.71-0.97,4.17-4.04,4.69C663.69,1107.55,643.59,1032.58,623.49,957.6z"/>
		<path d="M999.29,508.37c2.3,2.59,73.73,129.91,77.43,138.61c-3.39,2.48-6.9,5.05-10.52,7.69c0.03,3.12,1.77,5.48,2.96,7.98
			c29.35,61.79,58.73,123.57,88.11,185.36c28.82,60.61,57.62,121.23,86.45,181.84c1.21,2.54,2.53,5.01,3.87,7.65
			c2.94-0.53,3.94-2.84,5.33-4.53c16.63-20.23,33.19-40.51,49.79-60.77c54.05-65.98,108.11-131.97,162.2-197.91
			c1.38-1.68,2.42-4.07,5.67-4.32c-1.69,9.86-3.57,19.42-5.24,29.09c-5.52,31.91-11.07,63.82-16.57,95.74
			c-6.03,34.98-12.03,69.97-18.02,104.95c-5.42,31.67-10.8,63.35-16.24,95.01c-5.44,31.67-10.96,63.32-16.42,94.98
			c-3.08,17.87-6.05,35.77-9.25,53.62c-0.59,3.27-0.12,6.07,1.23,8.99c8.61,18.57,17.18,37.16,25.7,55.77
			c5.07,11.07,10.03,22.2,14.99,33.32c0.6,1.34,0.91,2.82,1.29,4.04c-0.78,0.67-1.11,1.2-1.54,1.29
			c-104.42,21.96-208.85,43.88-313.28,65.78c-0.97,0.2-2.01,0.03-3.04,0.03c-0.17-2.46,1.91-3.07,3.16-4.15
			c28.49-24.52,56.96-49.08,85.59-73.45c23.96-20.39,46.01-42.63,66.03-66.89c7.6-9.21,14.36-19.01,20.86-29.54
			c-14.97-31.54-29.95-63.1-44.82-94.42c3.7-6.4,28.02-36.49,33.15-40.98c4.97,8.54,8.64,17.6,12.93,26.34
			c4.33,8.84,8.46,17.79,12.73,26.66c4.25,8.83,8.14,17.84,13.11,27.03c2-2.16,2.25-4.39,2.81-6.45
			c7.85-29.28,15.67-58.56,23.52-87.84c11.07-41.29,22.15-82.58,33.22-123.86c0.72-2.69,1.37-5.4,2.47-9.72
			c-7.1,7.06-11.79,13.88-17.04,20.21c-5.3,6.38-10.45,12.89-15.66,19.35c-5.21,6.46-10.42,12.91-15.62,19.37
			c-5.2,6.46-10.39,12.93-15.6,19.39c-5.21,6.46-10.45,12.89-15.66,19.35c-5.21,6.46-10.38,12.94-15.59,19.4
			c-5.2,6.46-10.43,12.9-15.64,19.36c-5.21,6.46-10.41,12.92-15.61,19.38c-5.2,6.46-10.41,12.92-15.62,19.38
			s-10.43,12.91-15.65,19.36c-5.22,6.45-10.44,12.89-15.66,19.34c-5.22,6.45-10.43,12.9-15.66,19.34
			c-5.23,6.44-10.48,12.87-15.73,19.29c-5.23,6.39-10.48,12.78-16.04,19.55c-2.56-1.8-3.31-4.32-4.44-6.46
			c-24.04-45.33-48.04-90.69-72.07-136.02c-1.44-2.71-2.55-5.64-4.99-8.28c-50.28,22.96-100.66,23.08-150.97,0.1
			c-2.66,1.74-3.41,4.63-4.71,7.09c-17.47,32.98-34.86,66-52.31,98.98c-7.03,13.29-14.15,26.52-21.26,39.77
			c-0.84,1.56-1.84,3.03-3.1,5.11c-7.38-8.25-13.83-16.66-20.56-24.82c-6.59-8-13.07-16.1-19.6-24.16
			c-6.7-8.25-13.41-16.5-20.1-24.76c-6.69-8.26-13.37-16.53-20.04-24.8s-13.35-16.55-20.02-24.82
			c-6.51-8.07-13.02-16.15-19.52-24.22c-6.67-8.28-13.33-16.56-20-24.84c-6.67-8.27-13.36-16.54-20.04-24.81
			c-6.68-8.27-13.35-16.55-20.02-24.82c-6.51-8.07-13.01-16.16-19.52-24.22c-6.64-8.22-13.29-16.42-19.94-24.62
			c-0.48,0.28-0.95,0.56-1.43,0.84c20.1,74.98,40.19,149.96,60.3,224.95c3.07-0.52,3.22-2.98,4.04-4.69
			c10.87-22.66,21.62-45.38,32.45-68.06c1.08-2.27,1.55-4.98,3.97-6.45c4.17,3.89,27.6,32.71,32.54,40.05
			c-1.85,6.52-5.58,12.48-8.41,18.81c-2.86,6.38-5.98,12.65-8.99,18.96c-3.01,6.32-6.03,12.63-9.04,18.94
			c-3.01,6.32-6.01,12.63-9.01,18.96c-2.99,6.31-5.95,12.63-9,19.11c0.9,1.71,1.61,3.36,2.57,4.84
			c6.49,10.01,13.43,19.7,21.16,28.82c18.48,21.8,38.41,42.14,60.15,60.72c29.17,24.93,58.25,49.97,87.36,74.96
			c1.53,1.31,3.02,2.67,5.07,4.47c-2.55,1.22-4.52,0.55-6.36,0.17c-12.93-2.68-25.85-5.46-38.77-8.17
			c-38.27-8.05-76.55-16.08-114.82-24.12c-40.81-8.57-81.62-17.12-122.43-25.69c-10.9-2.29-21.79-4.59-32.69-6.92
			c-1.19-0.25-2.34-0.71-3.55-1.08c-0.24-3.16,1.41-5.3,2.46-7.59c12.35-27.12,24.8-54.19,37.09-81.33
			c4.56-10.07,4.65-7.07,2.52-19.29c-7.31-41.86-14.47-83.75-21.65-125.63c-8.05-46.99-16.03-94-24.06-140.99
			c-6.19-36.26-12.35-72.54-18.62-108.79c-4.86-28.08-9.88-56.14-14.79-84.21c-0.43-2.47-0.86-4.85-1.15-7.56
			c3.02,0.23,4.18,2.2,5.4,3.69c14.5,17.62,28.94,35.28,43.4,52.93c55.86,68.19,111.72,136.38,167.59,204.56
			c1.6,1.96,3.34,3.81,4.76,5.42c0.87-0.09,1.15-0.05,1.34-0.16c0.21-0.12,0.41-0.34,0.52-0.57
			c60.13-126.35,120.26-252.7,180.36-379.06c0.32-0.66,0.34-1.47,0.55-2.42c-2.62-3.59-7.27-4.78-9.97-7.91
			c-0.2-0.51-0.35-0.75-0.37-0.99c-0.02-0.24,0.06-0.51,0.18-0.72 M1001.07,1045.63c66.32,0.2,122.46-53.9,122.57-122.84
			c0.11-66.07-52.65-122.86-122.39-123.07c-68.17-0.21-123.16,54.69-122.93,123.27C878.56,994.14,936.61,1046.03,1001.07,1045.63z
			 M1001.28,633.18c-0.25,0.04-0.53,0.05-0.76,0.15c-0.22,0.1-0.46,0.25-0.59,0.45c-0.42,0.64-0.86,1.29-1.18,1.98
			c-19.73,41.6-39.45,83.21-59.16,124.82c-0.11,0.23-0.18,0.53-0.12,0.75c0.05,0.2,0.32,0.33,0.76,0.74
			c7.73-2.09,15.58-4.59,23.59-6.26c8.08-1.69,16.3-3.04,24.52-3.63c8.48-0.61,17.08-0.59,25.56,0.03
			c8.22,0.6,16.44,1.96,24.52,3.65c7.98,1.67,15.79,4.17,24.54,6.55c-0.72-2.01-1.05-3.17-1.54-4.25
			C1045.47,722.63,1005.43,639.47,1001.28,633.18z M879.43,1043.75c-2.45-2.71-4.37-4.81-6.26-6.92
			c-14.31-16-25.23-34.05-32.85-54.13c-0.73-1.93-0.51-4.76-3.51-5.63c-0.6,0.98-1.23,1.8-1.66,2.72
			c-15.86,33.44-31.69,66.88-47.52,100.33c-0.1,0.21-0.03,0.51-0.01,0.76c0.02,0.25,0.08,0.51,0.12,0.76
			c8.5,12.05,38.67,48.92,43.39,52.89c0.44-0.58,0.99-1.14,1.34-1.8C848.05,1103.22,863.62,1073.71,879.43,1043.75z
			 M1122.97,1043.88c0.49,1.28,0.69,2.04,1.05,2.72c14.98,28.43,29.97,56.85,44.99,85.25c0.54,1.02,1.41,1.86,2.2,2.89
			c0.98-0.85,1.65-1.28,2.12-1.87c13.03-16.13,26.05-32.27,39.03-48.45c0.93-1.16,1.51-2.62,2.12-3.72
			c-6.23-15.16-46.37-98.71-50.08-104.16c-3.65,8.17-6.82,16.34-10.88,24.05c-4.1,7.77-8.72,15.33-13.79,22.5
			C1134.66,1030.23,1128.74,1036.78,1122.97,1043.88z"/>
		<path class="st0" d="M1001.07,1045.63c-64.46,0.4-122.51-51.5-122.75-122.64c-0.22-68.58,54.76-123.48,122.93-123.27
			c69.74,0.21,122.5,57,122.39,123.07C1123.53,991.73,1067.39,1045.83,1001.07,1045.63z"/>
		<path class="st0" d="M1001.28,633.18c4.16,6.28,44.2,89.45,60.15,124.97c0.49,1.08,0.82,2.24,1.54,4.25
			c-8.75-2.37-16.56-4.88-24.54-6.55c-8.08-1.69-16.3-3.05-24.52-3.65c-8.48-0.62-17.08-0.64-25.56-0.03
			c-8.22,0.59-16.44,1.94-24.52,3.63c-8.02,1.67-15.86,4.17-23.59,6.26c-0.43-0.4-0.7-0.54-0.76-0.74
			c-0.06-0.22,0.01-0.53,0.12-0.75c19.71-41.61,39.43-83.21,59.16-124.82c0.33-0.69,0.76-1.34,1.18-1.98
			c0.13-0.2,0.37-0.36,0.59-0.45C1000.75,633.23,1001.02,633.23,1001.28,633.18z"/>
		<path class="st0" d="M879.43,1043.75c-15.81,29.96-31.38,59.47-46.97,88.97c-0.35,0.66-0.9,1.22-1.34,1.8
			c-4.72-3.97-34.89-40.84-43.39-52.89c-0.04-0.25-0.1-0.5-0.12-0.76c-0.02-0.25-0.08-0.55,0.01-0.76
			c15.83-33.45,31.67-66.9,47.52-100.33c0.43-0.92,1.06-1.74,1.66-2.72c3,0.87,2.77,3.7,3.51,5.63
			c7.62,20.08,18.53,38.13,32.85,54.13C875.06,1038.94,876.98,1041.04,879.43,1043.75z"/>
		<path class="st0" d="M1122.97,1043.88c5.77-7.1,11.69-13.64,16.75-20.79c5.08-7.17,9.69-14.73,13.79-22.5
			c4.06-7.7,7.23-15.88,10.88-24.05c3.72,5.45,43.85,89,50.08,104.16c-0.62,1.1-1.19,2.55-2.12,3.72
			c-12.98,16.18-26,32.32-39.03,48.45c-0.47,0.59-1.14,1.01-2.12,1.87c-0.79-1.03-1.66-1.87-2.2-2.89
			c-15.02-28.4-30.01-56.83-44.99-85.25C1123.66,1045.92,1123.46,1045.16,1122.97,1043.88z"/>
	</g>
</g>
<g id="Layer_2">
</g>
<g id="Layer_3">
	<path d="M1000.34,748.85c-95.52,0-172.96,78.11-172.96,174.46c0,96.35,77.43,174.46,172.96,174.46
		c95.51,0,172.95-78.12,172.95-174.46C1173.28,826.96,1095.85,748.85,1000.34,748.85z M1000.43,1047.76
		c-68.73,0-124.44-55.72-124.44-124.44c0-68.73,55.71-124.45,124.44-124.45c68.73,0,124.44,55.72,124.44,124.45
		C1124.88,992.04,1069.16,1047.76,1000.43,1047.76z"/>
</g>
</svg>
